# xmcd
#
# Track frame offsets:
# 150
# 16800
# 51192
# 73047
# 93822
# 106006
# 142471
# 155286
# 230164
#
# Disc length: 4530 seconds
#
#
# Revision: 0
# Processed by: cddbd v1.5.2PL0 Copyright (c) Steve Scherf et al.
# Submitted via: HACP 1.20
#
DISCID=7311b009
DTITLE=7th Order - "The Lake of Memory" audio - video promo (032711)
DYEAR=1900
DGENRE=
TTITLE0=Force of Nature Comes Down
TTITLE1=The Lake of Memory
TTITLE2=Lazarus
TTITLE3=Hats Off
TTITLE4=Throwing Fate The Slip
TTITLE5=Road to Yerevan
TTITLE6=100 Year Rain
TTITLE7=7th Order - WNTI radio interview
TTITLE8=Data Track
EXTD=
EXTT0=
EXTT1=
EXTT2=
EXTT3=
EXTT4=
EXTT5=
EXTT6=
EXTT7=
EXTT8=
PLAYORDER=
